HIERARCHY
ROOT Hip
{
	OFFSET 0 1.131 0.0052
	CHANNELS 6 Xposition Yposition Zposition Xrotation Yrotation Zrotation
	JOINT Abdomen
	{
		OFFSET 0 -0.047353 -0.05
		CHANNELS 3 Xrotation Zrotation Yrotation
		JOINT Chest
		{
			OFFSET 0 0.132153 0.007439
			CHANNELS 3 Xrotation Zrotation Yrotation
			JOINT Neck
			{
				OFFSET 0 0.3078 0.006161
				CHANNELS 3 Xrotation Zrotation Yrotation
				JOINT Head_comp
				{
					OFFSET 0 0.0884 0.013
					CHANNELS 3 Xrotation Yrotation Zrotation
					End Site
					{
						OFFSET -0 0.156 0.0624
					}
				}
			}
			JOINT Left_Collar
			{
				OFFSET 0.02282 0.250342 0.017193
				CHANNELS 2 Yrotation Zrotation
				JOINT Left_Shoulder
				{
					OFFSET 0.15421 0 0
					CHANNELS 3 Xrotation Yrotation Zrotation
					JOINT Left_Forearm
					{
						OFFSET 0.265212 0 0
						CHANNELS 2 Yrotation Xrotation
						JOINT Left_Hand
						{
							OFFSET 0.27571 0 0
							CHANNELS 2 Zrotation Yrotation
							JOINT L1ProxPhalanx
							{
								OFFSET 0.014142 0.001733 0.014142
								CHANNELS 3 Yrotation Zrotation Xrotation
								JOINT L1MidPhalanx
								{
									OFFSET 0.04 0 0
									CHANNELS 1 Zrotation
									JOINT L1DistPhalanx
									{
										OFFSET 0.035 0 0
										CHANNELS 1 Zrotation
										End Site
										{
											OFFSET 0.029 -0 -0
										}
									}
								}
							}
							JOINT L2ProxPhalanx
							{
								OFFSET 0.0821037 0.001578 0.0219996
								CHANNELS 2 Yrotation Zrotation
								JOINT L2MidPhalanx
								{
									OFFSET 0.04 0 0
									CHANNELS 1 Zrotation
									JOINT L2DistPhalanx
									{
										OFFSET 0.028 0 0
										CHANNELS 1 Zrotation
										End Site
										{
											OFFSET 0.02 -0 -0
										}
									}
								}
							}
							JOINT L3ProxPhalanx
							{
								OFFSET 0.083 0 0
								CHANNELS 2 Yrotation Zrotation
								JOINT L3MidPhalanx
								{
									OFFSET 0.053 0 0
									CHANNELS 1 Zrotation
									JOINT L3DistPhalanx
									{
										OFFSET 0.03 0 0
										CHANNELS 1 Zrotation
										End Site
										{
											OFFSET 0.023 -0 -0
										}
									}
								}
							}
							JOINT L4ProxPhalanx
							{
								OFFSET 0.077274 -0.000761 -0.0207055
								CHANNELS 2 Yrotation Zrotation
								JOINT L4MidPhalanx
								{
									OFFSET 0.05 0 0
									CHANNELS 1 Zrotation
									JOINT L4DistPhalanx
									{
										OFFSET 0.03 0 0
										CHANNELS 1 Zrotation
										End Site
										{
											OFFSET 0.023 -0 -0
										}
									}
								}
							}
							JOINT L5ProxPhalanx
							{
								OFFSET 0.0675499 -0.001644 -0.039
								CHANNELS 2 Yrotation Zrotation
								JOINT L5MidPhalanx
								{
									OFFSET 0.04 0 0
									CHANNELS 1 Zrotation
									JOINT L5DistPhalanx
									{
										OFFSET 0.021 0 0
										CHANNELS 1 Zrotation
										End Site
										{
											OFFSET 0.022 -0 -0
										}
									}
								}
							}
						}
					}
				}
			}
			JOINT Right_Collar
			{
				OFFSET -0.02282 0.250342 0.017193
				CHANNELS 2 Yrotation Zrotation
				JOINT Right_Shoulder
				{
					OFFSET -0.15421 0 0
					CHANNELS 3 Xrotation Yrotation Zrotation
					JOINT Right_Forearm
					{
						OFFSET -0.265212 0 0
						CHANNELS 2 Yrotation Xrotation
						JOINT Right_Hand
						{
							OFFSET -0.27571 3e-006 0
							CHANNELS 2 Zrotation Yrotation
							JOINT R1ProxPhalanx
							{
								OFFSET -0.014142 0.001733 0.014142
								CHANNELS 3 Yrotation Zrotation Xrotation
								JOINT R1MidPhalanx
								{
									OFFSET -0.04 0 0
									CHANNELS 1 Zrotation
									JOINT R1DistPhalanx
									{
										OFFSET -0.035 0 0
										CHANNELS 1 Zrotation
										End Site
										{
											OFFSET -0.029 -0 -0
										}
									}
								}
							}
							JOINT R2ProxPhalanx
							{
								OFFSET -0.0821037 0.001578 0.0219996
								CHANNELS 2 Yrotation Zrotation
								JOINT R2MidPhalanx
								{
									OFFSET -0.04 0 0
									CHANNELS 1 Zrotation
									JOINT R2DistPhalanx
									{
										OFFSET -0.028 0 0
										CHANNELS 1 Zrotation
										End Site
										{
											OFFSET -0.02 -0 -0
										}
									}
								}
							}
							JOINT R3ProxPhalanx
							{
								OFFSET -0.083 0 0
								CHANNELS 2 Yrotation Zrotation
								JOINT R3MidPhalanx
								{
									OFFSET -0.053 0 0
									CHANNELS 1 Zrotation
									JOINT R3DistPhalanx
									{
										OFFSET -0.03 0 0
										CHANNELS 1 Zrotation
										End Site
										{
											OFFSET -0.023 -0 -0
										}
									}
								}
							}
							JOINT R4ProxPhalanx
							{
								OFFSET -0.077274 -0.000761 -0.0207055
								CHANNELS 2 Yrotation Zrotation
								JOINT R4MidPhalanx
								{
									OFFSET -0.05 0 0
									CHANNELS 1 Zrotation
									JOINT R4DistPhalanx
									{
										OFFSET -0.03 0 0
										CHANNELS 1 Zrotation
										End Site
										{
											OFFSET -0.023 -0 -0
										}
									}
								}
							}
							JOINT R5ProxPhalanx
							{
								OFFSET -0.0675499 -0.001644 -0.039
								CHANNELS 2 Yrotation Zrotation
								JOINT R5MidPhalanx
								{
									OFFSET -0.04 0 0
									CHANNELS 1 Zrotation
									JOINT R5DistPhalanx
									{
										OFFSET -0.021 0 0
										CHANNELS 1 Zrotation
										End Site
										{
											OFFSET -0.022 -0 -0
										}
									}
								}
							}
						}
					}
				}
			}
		}
	}
	JOINT Left_Thigh
	{
		OFFSET 0.1118 -0.1612 -0.0442
		CHANNELS 3 Xrotation Zrotation Yrotation
		JOINT Left_Shin
		{
			OFFSET 0 -0.477856 0
			CHANNELS 1 Xrotation
			JOINT Left_Foot
			{
				OFFSET 0 -0.431952 0
				CHANNELS 2 Xrotation Zrotation
				JOINT Left_Toe
				{
					OFFSET 0 -0.0442 0.119
					CHANNELS 1 Xrotation
					End Site
					{
						OFFSET -0 -0 0.07
					}
				}
			}
		}
	}
	JOINT Right_Thigh
	{
		OFFSET -0.1118 -0.1612 -0.0442
		CHANNELS 3 Xrotation Zrotation Yrotation
		JOINT Right_Shin
		{
			OFFSET 0 -0.477856 0
			CHANNELS 1 Xrotation
			JOINT Right_Foot
			{
				OFFSET 0 -0.431952 0
				CHANNELS 2 Xrotation Zrotation
				JOINT Right_Toe
				{
					OFFSET 0 -0.0442 0.119
					CHANNELS 1 Xrotation
					End Site
					{
						OFFSET -0 -0 0.07
					}
				}
			}
		}
	}
}
MOTION
Frames: 14
Frame Time: 0.009975
-0.100861 -0.0601607 0.0526802 1.63428e-013 7.52797e-008 -5.10914e-006 0 -0 0 0 -0 0 0 -0 0 -0.713187 0.289808 -1.98583e-011 -2.12402 -12.9866 18.3175 -12.6787 -54.174 -83.814 2.72587 2.65764 1.55892 -46.8417 -18.6783 78.2003 -8.1385 -14.7688 -3.8447 -13.0265 -27.3658 -11.6654 0.21996 -19.7867 -15.4872 -14.5836 7.139 -20.3779 -28.4362 -14.9953 13.4359 -23.2774 -23.6937 -27.0574 2.52045 9.36438 22.0345 14.5625 54.7092 85.248 1.30812 1.24955 -0.588126 45.5468 19.9099 75.6834 23.8982 24.4613 9.87173 14.5894 25.4476 17.1663 -0.802372 18.7381 26.68 23.7222 -6.7635 28.2675 24.6565 17.9352 -6.21535 29.6189 21.2865 20.8951 0.850208 -0.688911 -0.0102231 0.0240216 -0.874168 0.688992 0 0.861614 -0.688909 -0.0103602 2.41484e-006 -0.861554 0.688992 0 
-0.100904 -0.0601686 0.0532328 2.62065e-013 7.84092e-008 -5.10909e-006 0 -0 0 0 -0 0 0 -0 0 -0.713249 0.289952 -1.93747e-011 -1.98436 -12.3879 19.3061 -12.4996 -54.9308 -84.0989 2.54665 2.4829 1.45642 -45.786 -19.8628 78.1254 -7.7843 -14.5038 -4.13754 -13.3866 -27.7841 -11.8592 0.128857 -20.2822 -15.7764 -14.9521 7.33741 -20.5505 -29.4654 -15.4515 13.8462 -22.7674 -25.4604 -28.1482 2.3511 8.99609 22.7366 14.3333 55.4919 85.335 1.22022 1.16559 -0.548608 44.7482 20.7599 75.4748 24.1441 24.8797 10.2125 14.9702 25.8231 17.4255 -0.718145 19.1263 27.303 24.1844 -6.95962 28.5233 25.4489 18.547 -6.38493 29.3162 22.742 21.8529 0.885014 -0.686169 -0.0105993 0.0240216 -0.908972 0.686256 0 0.89642 -0.686167 -0.0107359 1.21949e-006 -0.896357 0.686256 0 
-0.100946 -0.0601768 0.0537785 -5.54156e-013 8.15023e-008 -5.10904e-006 0 -0 0 0 -0 0 0 -0 0 -0.713311 0.290092 -1.87938e-011 -1.84546 -11.7924 20.2682 -12.3398 -55.7032 -84.3312 2.36839 2.30911 1.35447 -44.7303 -21.0473 78.0505 -7.4301 -14.2388 -4.43038 -13.7468 -28.2025 -12.0529 0.0377549 -20.7777 -16.0655 -15.3206 7.53582 -20.723 -30.4946 -15.9077 14.2565 -22.2573 -27.227 -29.239 2.18338 8.63143 23.4158 14.1117 56.2805 85.3837 1.13318 1.08244 -0.509472 43.9495 21.61 75.2662 24.39 25.2981 10.5533 15.351 26.1986 17.6848 -0.633918 19.5144 27.9259 24.6465 -7.15573 28.7792 26.2413 19.1588 -6.55452 29.0135 24.1976 22.8107 0.919388 -0.683526 -0.0109687 0.0240216 -0.943345 0.683619 0 0.930794 -0.683524 -0.0111047 8.40967e-007 -0.930729 0.683619 0 
-0.100987 -0.0601853 0.0543165 6.85899e-013 8.45542e-008 -5.10899e-006 0 -0 0 0 -0 0 0 -0 0 -0.713374 0.290226 -1.81194e-011 -1.70752 -11.2012 21.2014 -12.1977 -56.4891 -84.5116 2.19136 2.13651 1.25323 -43.6745 -22.2318 77.9756 -7.0759 -13.9738 -4.72322 -14.107 -28.6208 -12.2467 -0.0533479 -21.2732 -16.3547 -15.6891 7.73422 -20.8956 -31.5238 -16.3639 14.6668 -21.7473 -28.9936 -30.3298 2.01749 8.27081 24.0711 13.8968 57.0734 85.3953 1.04708 1.0002 -0.470764 43.1509 22.46 75.0577 24.6359 25.7165 10.894 15.7317 26.5741 17.944 -0.549691 19.9026 28.5489 25.1086 -7.35185 29.0351 27.0338 19.7706 -6.72411 28.7108 25.6532 23.7685 0.953277 -0.680987 -0.0113308 0.0240216 -0.977231 0.681086 0 0.964682 -0.680984 -0.0114664 8.70849e-007 -0.964615 0.681086 0 
-0.101025 -0.0601939 0.0548459 -3.39647e-014 8.756e-008 -5.10893e-006 0 -0 0 0 -0 0 0 -0 0 -0.713436 0.290355 -1.73575e-011 -1.57077 -10.6152 22.104 -12.072 -57.2862 -84.6411 2.01586 1.96541 1.15286 -42.6188 -23.4163 77.9007 -6.7217 -13.7088 -5.01606 -14.4671 -29.0392 -12.4405 -0.14445 -21.7687 -16.6439 -16.0576 7.93263 -21.0682 -32.5529 -16.8201 15.0771 -21.2372 -30.7602 -31.4206 1.85367 7.91472 24.702 13.6877 57.8685 85.3712 0.962055 0.918978 -0.432537 42.3523 23.3101 74.8491 24.8817 26.1349 11.2348 16.1125 26.9496 18.2032 -0.465464 20.2907 29.1719 25.5707 -7.54796 29.291 27.8262 20.3824 -6.89369 28.4081 27.1087 24.7263 0.986621 -0.678558 -0.0116854 0.0240216 -1.01057 0.678664 0 0.998026 -0.678556 -0.0118205 0 -0.997956 0.678664 0 
-0.101062 -0.0602026 0.0553656 -3.31911e-013 9.05143e-008 -5.10888e-006 0 -0 0 0 -0 0 0 -0 0 -0.713499 0.290479 -1.65129e-011 -1.43546 -10.0354 22.974 -11.9612 -58.0921 -84.7211 1.84221 1.7961 1.05355 -41.5631 -24.6008 77.8258 -6.3675 -13.4438 -5.3089 -14.8273 -29.4575 -12.6343 -0.235553 -22.2642 -16.933 -16.4261 8.13104 -21.2407 -33.5821 -17.2763 15.4874 -20.7272 -32.5268 -32.5114 1.69215 7.56371 25.3075 13.4838 58.6635 85.3128 0.878228 0.838905 -0.394849 41.5537 24.1601 74.6405 25.1276 26.5533 11.5756 16.4933 27.3251 18.4625 -0.381237 20.6789 29.7949 26.0328 -7.74408 29.5469 28.6186 20.9942 -7.06328 28.1054 28.5643 25.6841 1.01936 -0.676245 -0.0120321 0.0240216 -1.04331 0.676357 0 1.03076 -0.676243 -0.0121667 0 -1.03069 0.676357 0 
-0.101097 -0.0602115 0.0558747 1.5544e-013 9.34112e-008 -5.10882e-006 0 -0 0 0 -0 0 0 -0 0 -0.713561 0.290597 -1.55884e-011 -1.30187 -9.46307 23.8096 -11.8636 -58.9038 -84.7531 1.67076 1.62894 0.955503 -40.5074 -25.7853 77.7509 -6.0133 -13.1788 -5.60174 -15.1874 -29.8758 -12.8281 -0.326655 -22.7597 -17.2222 -16.7946 8.32944 -21.4133 -34.6113 -17.7325 15.8977 -20.2171 -34.2934 -33.6022 1.53323 7.21838 25.887 13.2845 59.4562 85.2218 0.795748 0.760118 -0.357766 40.7551 25.0102 74.432 25.3735 26.9717 11.9163 16.874 27.7006 18.7217 -0.29701 21.067 30.4178 26.495 -7.94019 29.8028 29.411 21.606 -7.23286 27.8028 30.0198 26.6419 1.05142 -0.674054 -0.0123705 0.0240216 -1.07537 0.674172 0 1.06283 -0.674051 -0.0125046 1.16516e-006 -1.06276 0.674172 0 
-0.10113 -0.0602205 0.0563718 5.17851e-013 9.62445e-008 -5.10877e-006 0 -0 0 0 -0 0 0 -0 0 -0.713623 0.290708 -1.45928e-011 -1.17032 -8.89955 24.6089 -11.7778 -59.7182 -84.7392 1.50194 1.46434 0.858952 -39.4516 -26.9698 77.676 -5.65909 -12.9139 -5.89458 -15.5476 -30.2942 -13.0218 -0.417758 -23.2552 -17.5113 -17.1631 8.52785 -21.5859 -35.6405 -18.1887 16.308 -19.707 -36.06 -34.693 1.37723 6.87943 26.44 13.0892 60.2438 85.1003 0.714783 0.682778 -0.321364 39.9565 25.8602 74.2234 25.6194 27.3901 12.2571 17.2548 28.0762 18.981 -0.212784 21.4552 31.0408 26.9571 -8.13631 30.0586 30.2034 22.2178 -7.40245 27.5001 31.4754 27.5996 1.08274 -0.671987 -0.0127 0.0240216 -1.10669 0.672112 0 1.09415 -0.671984 -0.0128337 1.25571e-006 -1.09407 0.672112 0 
-0.10116 -0.0602295 0.0568559 4.73148e-013 9.90074e-008 -5.10871e-006 0 -0 0 0 -0 0 0 -0 0 -0.713685 0.290813 -1.35352e-011 -1.04118 -8.34641 25.3703 -11.7022 -60.5316 -84.6818 1.3362 1.30275 0.764168 -38.3959 -28.1543 77.6011 -5.30489 -12.6489 -6.18742 -15.9078 -30.7125 -13.2156 -0.50886 -23.7507 -17.8005 -17.5316 8.72626 -21.7584 -36.6697 -18.6449 16.7183 -19.197 -37.8266 -35.7838 1.22452 6.54768 26.9657 12.8977 61.0232 84.9504 0.635528 0.607072 -0.285732 39.1579 26.7103 74.0148 25.8652 27.8086 12.5979 17.6356 28.4517 19.2402 -0.128557 21.8433 31.6638 27.4192 -8.33242 30.3145 30.9958 22.8296 -7.57204 27.1974 32.931 28.5574 1.11323 -0.670049 -0.0130201 0.0240216 -1.13718 0.67018 0 1.12464 -0.670046 -0.0131534 0 -1.12456 0.67018 0 
-0.101189 -0.0602385 0.0573254 5.83117e-013 1.02926e-007 -5.10863e-006 0 -0 0 0 -0 0 0 -0 0 -0.713745 0.290912 -1.24191e-011 -0.914862 -7.80544 26.0921 -11.6355 -61.3398 -84.5838 1.17409 1.14471 0.67146 -37.3402 -29.3388 77.5262 -4.95069 -12.3839 -6.48026 -16.2679 -31.1309 -13.4094 -0.599963 -24.2462 -18.0897 -17.9001 8.92466 -21.931 -37.6988 -19.1011 17.1286 -18.6869 -39.5933 -36.8746 1.07555 6.22407 27.4635 12.7099 61.7911 84.7749 0.558211 0.533217 -0.25097 38.3593 27.5603 73.8063 26.1111 28.227 12.9386 18.0163 28.8272 19.4994 -0.0443299 22.2315 32.2868 27.8813 -8.52854 30.5704 31.7882 23.4414 -7.74162 26.8947 34.3865 29.5152 1.14281 -0.668242 -0.01333 0.0240216 -1.16675 0.66838 0 1.15421 -0.668239 -0.013463 1.14705e-006 -1.15413 0.66838 0 
-0.101216 -0.0602474 0.0577788 9.43152e-014 1.05472e-007 -5.10858e-006 0 -0 0 0 -0 0 0 -0 0 -0.713804 0.291003 -1.12591e-011 -0.791875 -7.27877 26.7727 -11.5762 -62.1381 -84.4488 1.01626 0.990822 0.581195 -36.7832 -29.9624 77.4898 -4.76427 -12.2444 -6.63439 -16.4575 -31.3511 -13.5114 -0.647911 -24.507 -18.2419 -18.0941 9.02909 -22.0218 -38.2405 -19.3412 17.3445 -18.4185 -40.523 -37.4487 0.93083 5.90973 27.9327 12.5257 62.5436 84.5767 0.483102 0.461471 -0.217201 37.9386 28.008 73.698 26.2405 28.4472 13.118 18.2167 29.0248 19.6359 0 22.4358 32.6146 28.1246 -8.63175 30.7051 32.2053 23.7634 -7.83088 26.7354 35.1526 30.0193 1.17136 -0.666569 -0.013629 0.0240216 -1.19531 0.666713 0 1.18277 -0.666566 -0.0137617 1.27383e-006 -1.18269 0.666713 0 
-0.10124 -0.0602562 0.0582134 -1.05068e-013 1.06792e-007 -5.10855e-006 0 -0 0 0 -0 0 0 -0 0 -0.713862 0.291088 -1.00612e-011 -0.672808 -6.76892 27.4103 -11.5231 -62.921 -84.281 0.863453 0.841841 0.493805 -36.7832 -29.9624 77.4898 -4.76427 -12.2444 -6.63439 -16.4575 -31.3511 -13.5114 -0.647911 -24.507 -18.2419 -18.0941 9.02909 -22.0218 -38.2405 -19.3412 17.3445 -18.4185 -40.523 -37.4487 0.790988 5.60601 28.3725 12.3455 63.2763 84.3593 0.410524 0.392142 -0.18457 37.9386 28.008 73.698 26.2405 28.4472 13.118 18.2167 29.0248 19.6359 0 22.4358 32.6146 28.1246 -8.63175 30.7051 32.2053 23.7634 -7.83088 26.7354 35.1526 30.0193 1.19874 -0.665026 -0.0139154 0.0240216 -1.22268 0.665177 0 1.21015 -0.665023 -0.0140478 0 -1.21007 0.665177 0 
-0.101263 -0.0602648 0.058627 -3.84679e-014 1.09178e-007 -5.1085e-006 0 -0 0 0 -0 0 0 -0 0 -0.713918 0.291166 -8.82687e-012 -0.558375 -6.27895 28.003 -11.475 -63.6821 -84.0855 0.716594 0.698658 0.409817 -36.7832 -29.9624 77.4898 -4.76427 -12.2444 -6.63439 -16.4575 -31.3511 -13.5114 -0.647911 -24.507 -18.2419 -18.0941 9.02909 -22.0218 -38.2405 -19.3412 17.3445 -18.4185 -40.523 -37.4487 0.656784 5.31454 28.7821 12.1699 63.984 84.1269 0.340872 0.325609 -0.153255 37.9386 28.008 73.698 26.2405 28.4472 13.118 18.2167 29.0248 19.6359 0 22.4358 32.6146 28.1246 -8.63175 30.7051 32.2053 23.7634 -7.83088 26.7354 35.1526 30.0193 1.2248 -0.663616 -0.0141878 0.0240216 -1.24873 0.663772 0 1.2362 -0.663613 -0.0143199 1.32379e-006 -1.23612 0.663772 0 
-0.101283 -0.0602731 0.0590178 -4.18741e-013 1.11442e-007 -5.10845e-006 0 -0 0 0 -0 0 0 -0 0 -0.713971 0.291236 -7.56338e-012 -0.449457 -5.81261 28.5489 -11.4312 -64.4136 -83.8684 0.576814 0.562376 0.329878 -36.7832 -29.9624 77.4898 -4.76427 -12.2444 -6.63439 -16.4575 -31.3511 -13.5114 -0.647911 -24.507 -18.2419 -18.0941 9.02909 -22.0218 -38.2405 -19.3412 17.3445 -18.4185 -40.523 -37.4487 0.529168 5.03738 29.1601 11.9998 64.6605 83.8846 0.274639 0.262342 -0.123477 37.9386 28.008 73.698 26.2405 28.4472 13.118 18.2167 29.0248 19.6359 0 22.4358 32.6146 28.1246 -8.63175 30.7051 32.2053 23.7634 -7.83088 26.7354 35.1526 30.0193 1.24941 -0.662343 -0.0144453 0.0240216 -1.27335 0.662506 0 1.26082 -0.662341 -0.0145771 2.83165e-006 -1.26073 0.662506 0 
